<svg xmlns="http://www.w3.org/2000/svg" viewBox="0 0 288 288" width="128" height="128"><g stroke-width="9.63" fill="none" fill-rule="evenodd"><path d="M235.937 174.607A64.663 64.663 0 0 0 272 146.826c-25.176 5.672-51.244-4.75-65.569-26.217-14.325-21.466-13.945-49.538.954-70.609-28.582 4.311-50.778 27.157-54.263 55.852" stroke="#686763" stroke-linejoin="bevel"></path><path d="M71.993 237.44c-30.58-.066-55.317-24.91-55.25-55.49.066-30.58 24.91-55.316 55.49-55.25h9.293c17.698-20.794 46.193-28.857 72.163-20.418 25.97 8.438 44.283 31.71 46.378 58.937h11.652c19.943 0 36.11 16.167 36.11 36.11 0 19.944-16.167 36.112-36.11 36.112H71.993Z" stroke="#BABABA"></path></g></svg>
			