<svg xmlns="http://www.w3.org/2000/svg" viewBox="0 0 288 288" width="128" height="128"><g stroke-width="9.778" fill="none" fill-rule="evenodd"><path d="M100 49v34.222M46.222 136.658H12M61.916 98.573l-24.2-24.2M128.209 109.427a39.111 39.111 0 1 0-53.778 56.71" stroke="#FF8700"></path><path d="M276 183.102a56.222 56.222 0 0 0-56.222-56.222h-9.534c-17.963-21.15-46.919-29.36-73.31-20.788-26.391 8.572-44.996 32.23-47.103 59.9H78.05c-20.25 0-36.667 16.415-36.667 36.666 0 20.25 16.416 36.666 36.667 36.666h141.778c31.031-.027 56.173-25.19 56.173-56.222Z" stroke="#BABABA"></path></g></svg>