<svg xmlns="http://www.w3.org/2000/svg" viewBox="0 0 288 288" width="128" height="128"><g stroke-width="10.764" fill="none" fill-rule="evenodd"><path d="M189.565 73.268h4.952a26.91 26.91 0 0 1 48.009-16.147h9.095c11.89 0 21.529 9.64 21.529 21.529 0 11.89-9.639 21.529-21.529 21.529h-62.056c-7.43 0-13.455-6.025-13.455-13.456 0-7.431 6.024-13.455 13.455-13.455Z" stroke="#BABABA"></path><path d="M123.85 261.643c57.675 22.82 123.414 1.058 156.082-51.669-50.074 11.483-102.036-9.155-130.585-51.865-28.549-42.71-27.75-98.614 2.005-140.493A127.072 127.072 0 0 0 50.114 185.379" stroke="#686763" stroke-linejoin="bevel"></path><path d="M39.134 191.675h4.737a43.057 43.057 0 0 1 76.534 25.834h6.889c11.778.582 21.03 10.301 21.03 22.094 0 11.793-9.252 21.512-21.03 22.094h-88.16c-18.568-1.03-33.096-16.388-33.096-34.984 0-18.597 14.528-33.954 33.096-34.984v-.054Z" stroke="#BABABA"></path></g></svg>