<svg xmlns="http://www.w3.org/2000/svg" viewBox="0 0 288 288" width="128" height="128"><g stroke-width="9.533" fill="none" fill-rule="evenodd"><path d="M142.99 1v47.663M142.99 239.316v47.663M0 143.99h47.663M210.385 76.594l33.698-33.698M244.083 245.083l-33.698-33.698M75.594 76.594 41.896 42.896M211.624 110.959c-14.997-31.103-49.022-48.248-82.944-41.794-33.922 6.453-59.275 34.894-61.804 69.331-2.53 34.437 18.396 66.277 51.011 77.617 32.615 11.34 68.78-.649 88.16-29.227" stroke="#FF8700"></path><path d="M250.184 124.924h-4.147a38.13 38.13 0 0 0-67.777 22.879h-6.1c-10.431.515-18.624 9.122-18.624 19.565 0 10.444 8.193 19.051 18.623 19.566h78.025a31.029 31.029 0 1 0 0-61.962v-.048ZM78.644 234.55h-4.432c0-13.162-10.67-23.832-23.832-23.832a23.45 23.45 0 0 0-18.732 9.533h-7.816c-10.53 0-19.066 8.535-19.066 19.065 0 10.53 8.536 19.065 19.066 19.065h54.812c6.581 0 11.916-5.335 11.916-11.916 0-6.58-5.335-11.916-11.916-11.916Z" stroke="#BABABA"></path></g></svg>